<svg height="487pt" viewBox="0 -42 487.358 487" width="487pt" xmlns="http://www.w3.org/2000/svg"><path d="m416.1875 200.21875h.019531c-9.480469-32.03125-19.144531-55.648438-27.296875-72.453125 0 0-19.335937-55.382813-55.890625-52.109375-36.554687-3.269531-55.890625 52.109375-55.890625 52.109375-8.152344 16.804687-17.816406 40.421875-27.292968 72.453125h.015624c-19.324218 53.890625-32.292968 109.929688-38.488281 166.992188h243.316407c-6.199219-57.0625-19.164063-113.105469-38.492188-166.992188zm0 0" fill="#eaa97d"/><path d="m342.910156 156.1875v-16.429688c0-3.535156 2.867188-6.402343 6.398438-6.402343h2.675781c3.535156 0 6.402344 2.867187 6.402344 6.402343v31.046876c0 3.53125 2.867187 6.398437 6.398437 6.398437h15.574219c3.53125 0 6.398437-2.867187 6.398437-6.398437v-4.824219c0-3.535157 2.867188-6.402344 6.398438-6.402344 4.542969 0 7.636719-4.609375 5.929688-8.820313-3.554688-8.773437-6.980469-16.410156-10.175782-22.992187 0 0-19.191406-54.984375-55.488281-52.144531-.265625.019531-.535156.019531-.796875 0-36.300781-2.839844-55.492188 52.144531-55.492188 52.144531-5.160156 10.636719-10.925781 24.019531-16.871093 40.535156-3.066407 8.523438 3.296875 17.5 12.355469 17.5h14.625c7.242187 0 13.113281-5.871093 13.113281-13.113281v-20.894531c0-3.535157 2.863281-6.398438 6.398437-6.398438h2.246094c3.535156 0 6.398438 2.863281 6.398438 6.398438v4.394531c0 3.535156 2.867187 6.398438 6.402343 6.398438h14.710938c3.53125.003906 6.398437-2.863282 6.398437-6.398438zm0 0" fill="#e0ebfc"/><path d="m454.679688 371.207031h-243.3125c-1.136719 0-2.21875-.480469-2.976563-1.324219-.757813-.847656-1.121094-1.976562-1-3.105468 6.191406-56.976563 19.167969-113.347656 38.570313-167.542969.011718-.050781.027343-.101563.042968-.152344 8.195313-27.683593 17.425782-52.195312 27.433594-72.863281 1.613281-4.511719 21.433594-57.722656 59.589844-54.578125 38.167968-3.042969 57.972656 50.066406 59.585937 54.578125 10.015625 20.675781 19.242188 45.1875 27.433594 72.863281.011719.050781.027344.101563.042969.152344 19.402344 54.203125 32.378906 110.570313 38.566406 167.542969.125 1.128906-.238281 2.257812-1 3.105468-.761719.84375-1.84375 1.324219-2.976562 1.324219zm-238.839844-8h234.367187c-6.316406-54.960937-19.019531-109.320312-37.785156-161.636719-.066406-.195312-.125-.390624-.160156-.589843-8.066407-27.195313-17.128907-51.234375-26.949219-71.46875-.066406-.136719-.125-.28125-.175781-.425781-.1875-.523438-18.761719-52.445313-51.757813-49.445313-.238281.019531-.476562.019531-.714844 0-33.097656-2.960937-51.570312 48.921875-51.753906 49.445313-.050781.144531-.113281.289062-.179687.425781-9.8125 20.226562-18.878907 44.273437-26.949219 71.472656-.039062.199219-.089844.390625-.160156.585937-18.757813 52.308594-31.464844 106.667969-37.78125 161.636719zm0 0" fill="#3762cc"/><path d="m286.726562 159.382812h.023438c-11.796875-39.867187-23.824219-69.261718-33.96875-90.171874 0 0-24.0625-68.929688-69.558594-64.855469-45.496094-4.074219-69.558594 64.855469-69.558594 64.855469-10.144531 20.910156-22.171874 50.304687-33.96875 90.171874h.023438c-24.054688 67.066407-40.1875 136.808594-47.902344 207.824219h302.808594c-7.710938-71.015625-23.847656-140.757812-47.898438-207.824219zm0 0" fill="#eaa97d"/><path d="m195.527344 104.585938v-20.449219c0-4.402344 3.566406-7.96875 7.964844-7.96875h3.332031c4.398437 0 7.964843 3.566406 7.964843 7.96875v38.636719c0 4.402343 3.566407 7.96875 7.96875 7.96875h19.378907c4.398437 0 7.964843-3.566407 7.964843-7.96875v-6.003907c0-4.398437 3.566407-7.964843 7.964844-7.964843 5.652344 0 9.503906-5.738282 7.378906-10.980469-4.421874-10.917969-8.6875-20.421875-12.660156-28.617188 0 0-23.886718-68.425781-69.0625-64.894531-.328125.027344-.664062.027344-.988281 0-45.175781-3.53125-69.0625 64.894531-69.0625 64.894531-6.425781 13.242188-13.605469 29.898438-21 50.453125-3.816406 10.605469 4.105469 21.777344 15.375 21.777344h18.199219c9.015625 0 16.320312-7.304688 16.320312-16.316406v-26.007813c0-4.398437 3.566406-7.964843 7.964844-7.964843h2.792969c4.402343 0 7.96875 3.566406 7.96875 7.964843v5.472657c0 4.398437 3.566406 7.964843 7.964843 7.964843h18.308594c4.394532 0 7.960938-3.566406 7.960938-7.964843zm0 0" fill="#e0ebfc"/><path d="m474.71875 399.3125h-462.082031c-4.769531 0-8.640625-3.871094-8.640625-8.640625v-14.824219c0-4.769531 3.871094-8.640625 8.640625-8.640625h462.085937c4.769532 0 8.636719 3.871094 8.636719 8.640625v14.824219c0 4.769531-3.871094 8.640625-8.640625 8.640625zm0 0" fill="#a4c9ff"/><path d="m406.4375 342.753906h33.097656v24.457032h-33.097656zm0 0" fill="#eaa97d"/><path d="m478.535156 336.347656-17.035156-25.90625h5.496094c2.871094 0 4.636718-3.453125 3.136718-6.140625l-15.402343-27.679687h3.132812c2.859375 0 4.625-3.425782 3.15625-6.117188l-34.878906-63.835937c-1.425781-2.613281-4.875-2.613281-6.304687 0l-34.878907 63.835937c-1.46875 2.691406.296875 6.117188 3.15625 6.117188h3.128907l-15.398438 27.679687c-1.5 2.6875.265625 6.140625 3.136719 6.140625h5.496093l-17.035156 25.90625c-1.757812 2.671875-.019531 6.402344 2.980469 6.402344h105.132813c3 .003906 4.738281-3.730469 2.980468-6.402344zm0 0" fill="#6bdddd"/><path d="m439.535156 371.207031h-33.097656c-2.207031 0-4-1.789062-4-4v-20.457031h-32.015625c-2.808594 0-5.308594-1.523438-6.6875-4.078125-1.457031-2.703125-1.316406-5.96875.363281-8.523437l13.101563-19.921876c-1.960938-.480468-3.667969-1.753906-4.753907-3.601562-1.492187-2.535156-1.53125-5.707031-.101562-8.273438l12.515625-22.484374c-1.328125-.644532-2.464844-1.6875-3.265625-3.039063-1.496094-2.519531-1.550781-5.675781-.144531-8.246094l34.875-63.835937c1.378906-2.53125 3.875-4.042969 6.664062-4.042969 2.789063 0 5.28125 1.515625 6.664063 4.046875l34.875 63.832031c1.40625 2.570313 1.351562 5.726563-.144532 8.246094-.796874 1.351563-1.9375 2.394531-3.265624 3.039063l12.511718 22.484374c1.429688 2.566407 1.394532 5.734376-.097656 8.269532-1.085938 1.851562-2.792969 3.125-4.753906 3.605468l13.101562 19.921876c1.679688 2.554687 1.816406 5.824218.355469 8.527343-1.375 2.550781-3.871094 4.074219-6.679687 4.074219h-32.019532v20.457031c0 2.210938-1.792968 4-4 4zm-29.097656-8h25.097656v-20.457031c0-2.207031 1.792969-4 4-4h35.699219c.011719-.0625.003906-.136719-.039063-.207031l-17.039062-25.902344c-.804688-1.230469-.875-2.800781-.179688-4.097656.703126-1.292969 2.050782-2.101563 3.523438-2.101563h5.179688c.007812-.054687 0-.125-.039063-.199218l-15.40625-27.679688c-.6875-1.238281-.667969-2.75.050781-3.972656.714844-1.222656 2.027344-1.972656 3.445313-1.972656h2.816406c.003906-.054688 0-.125-.039063-.199219l-34.519531-63.179688-34.523437 63.179688c-.039063.070312-.039063.140625-.035156.199219h2.8125c1.417968 0 2.730468.75 3.449218 1.972656.714844 1.222656.738282 2.734375.046875 3.972656l-15.402343 27.679688c-.042969.070312-.046876.140624-.039063.199218h5.175781c1.46875 0 2.820313.804688 3.519532 2.101563.699218 1.292969.628906 2.867187-.179688 4.097656l-17.035156 25.902344c-.042969.070312-.050782.144531-.042969.207031h35.699219c2.207031 0 4 1.792969 4 4v20.457031zm0 0" fill="#3762cc"/><path d="m334.628906 371.207031h-302.8125c-1.132812 0-2.214844-.480469-2.972656-1.324219-.761719-.847656-1.125-1.976562-1-3.105468 7.691406-70.847656 23.832031-140.945313 47.964844-208.34375.015625-.0625.035156-.125.050781-.1875 10.1875-34.421875 21.664063-64.894532 34.109375-90.578125 1.84375-5.179688 26.300781-71.152344 73.253906-67.328125 46.996094-3.78125 71.410156 62.148437 73.253906 67.328125 12.445313 25.683593 23.921876 56.15625 34.109376 90.578125.019531.0625.035156.125.050781.1875 24.132812 67.398437 40.273437 137.496094 47.964843 208.34375.125 1.128906-.238281 2.257812-1 3.105468-.753906.84375-1.835937 1.324219-2.972656 1.324219zm-298.339844-8h293.867188c-7.824219-68.855469-23.699219-136.949219-47.195312-202.476562-.074219-.207031-.128907-.414063-.167969-.625-10.0625-33.921875-21.371094-63.914063-33.613281-89.148438-.066407-.136719-.128907-.28125-.175782-.425781-.230468-.660156-23.609375-65.9375-65.425781-62.191406-.238281.019531-.476563.019531-.714844 0-41.84375-3.757813-65.191406 61.53125-65.417969 62.191406-.054687.144531-.113281.289062-.179687.425781-12.246094 25.234375-23.554687 55.230469-33.617187 89.15625-.035157.207031-.09375.414063-.164063.621094-23.5 65.523437-39.371094 133.621094-47.195313 202.472656zm0 0" fill="#3762cc"/><path d="m57.90625 336.636719h41.371094v30.570312h-41.371094zm0 0" fill="#eaa97d"/><path d="m148.027344 328.636719-21.296875-32.382813h6.871093c3.589844 0 5.792969-4.320312 3.921876-7.679687l-19.253907-34.597657h3.917969c3.574219 0 5.777344-4.28125 3.941406-7.648437l-43.597656-79.792969c-1.785156-3.269531-6.097656-3.269531-7.882812 0l-43.59375 79.792969c-1.839844 3.363281.367187 7.644531 3.941406 7.644531h3.914062l-19.253906 34.597656c-1.871094 3.363282.332031 7.679688 3.921875 7.679688h6.871094l-21.296875 32.382812c-2.195313 3.339844-.023438 8.003907 3.726562 8.003907h131.421875c3.75 0 5.921875-4.664063 3.726563-8zm0 0" fill="#6bdddd"/><path d="m99.277344 371.207031h-41.371094c-2.207031 0-4-1.789062-4-4v-26.570312h-41.023438c-3.132812 0-5.929687-1.707031-7.472656-4.570313-1.644531-3.054687-1.488281-6.746094.40625-9.628906l17.230469-26.203125c-2.789063-.175781-5.289063-1.742187-6.769531-4.257813-1.683594-2.867187-1.726563-6.449218-.117188-9.351562l16.191406-29.085938c-1.90625-.640624-3.550781-1.96875-4.644531-3.8125-1.6875-2.84375-1.75-6.414062-.160156-9.316406l43.59375-79.796875c1.550781-2.835937 4.335937-4.53125 7.453125-4.53125s5.898438 1.695313 7.453125 4.53125l43.59375 79.796875c1.585937 2.902344 1.523437 6.472656-.164063 9.316406-1.09375 1.84375-2.738281 3.171876-4.636718 3.8125l16.1875 29.085938c1.613281 2.902344 1.570312 6.484375-.117188 9.351562-1.476562 2.515626-3.980468 4.082032-6.769531 4.257813l17.230469 26.203125c1.898437 2.882812 2.054687 6.574219.40625 9.628906-1.542969 2.863282-4.339844 4.570313-7.472656 4.570313h-41.027344v26.570312c0 2.210938-1.792969 4-4 4zm-37.371094-8h33.371094v-26.570312c0-2.207031 1.792968-4 4-4h45.023437c.195313 0 .339844-.199219.433594-.367188.195313-.363281.285156-.933593-.046875-1.441406l-21.296875-32.378906c-.804687-1.226563-.875-2.800781-.179687-4.097657.699218-1.292968 2.050781-2.101562 3.523437-2.101562h6.871094c.1875 0 .339843-.207031.410156-.332031.199219-.335938.308594-.882813.019531-1.402344l-19.253906-34.597656c-.691406-1.238281-.671875-2.75.046875-3.972657.714844-1.222656 2.03125-1.972656 3.449219-1.972656h3.914062c.1875 0 .335938-.207031.410156-.328125.195313-.332031.304688-.878906.023438-1.398437l-43.597656-79.796875c-.074219-.136719-.230469-.367188-.429688-.367188-.203125 0-.359375.230469-.433594.367188l-43.597656 79.796875c-.285156.523437-.175781 1.066406.027344 1.398437.085938.148438.226562.328125.40625.328125h3.914062c1.421876 0 2.730469.75 3.449219 1.972656.71875 1.222657.738281 2.734376.046875 3.972657l-19.253906 34.597656c-.289062.519531-.179688 1.066406.019531 1.402344.070313.125.222657.332031.410157.332031h6.871093c1.46875 0 2.820313.808594 3.519531 2.101562.699219 1.296876.628907 2.871094-.179687 4.097657l-21.292969 32.378906c-.332031.507813-.242187 1.078125-.046875 1.441406.09375.167969.238281.367188.433594.367188h45.023437c2.207032 0 4 1.792969 4 4v26.570312zm0 0" fill="#3762cc"/><path d="m123.957031 342.753906h33.097657v24.457032h-33.097657zm0 0" fill="#eaa97d"/><path d="m196.054688 336.347656-17.035157-25.90625h5.496094c2.871094 0 4.636719-3.453125 3.136719-6.140625l-15.398438-27.679687h3.128906c2.859376 0 4.625-3.425782 3.15625-6.117188l-34.878906-63.835937c-1.425781-2.613281-4.875-2.613281-6.304687 0l-34.878907 63.835937c-1.46875 2.691406.296876 6.113282 3.15625 6.113282h3.132813l-15.402344 27.679687c-1.5 2.691406.265625 6.144531 3.136719 6.144531h5.496094l-17.035156 25.90625c-1.757813 2.667969-.019532 6.402344 2.980468 6.402344h105.132813c3 .003906 4.738281-3.730469 2.980469-6.402344zm0 0" fill="#6bdddd"/><g fill="#3762cc"><path d="m157.054688 371.207031h-33.09375c-2.207032 0-4-1.789062-4-4v-20.457031h-32.019532c-2.808594 0-5.304687-1.523438-6.679687-4.074219-1.460938-2.703125-1.324219-5.972656.355469-8.527343l13.101562-19.921876c-1.957031-.480468-3.667969-1.753906-4.753906-3.605468-1.492188-2.535156-1.527344-5.703125-.097656-8.273438l12.511718-22.480468c-1.328125-.644532-2.464844-1.6875-3.265625-3.039063-1.496093-2.519531-1.550781-5.675781-.144531-8.246094l34.875-63.835937c1.378906-2.53125 3.875-4.042969 6.664062-4.042969 2.789063 0 5.28125 1.515625 6.664063 4.046875l34.875 63.832031c1.40625 2.570313 1.351563 5.730469-.144531 8.246094-.796875 1.351563-1.9375 2.394531-3.261719 3.039063l12.511719 22.484374c1.425781 2.566407 1.390625 5.738282-.101563 8.273438-1.085937 1.847656-2.792969 3.121094-4.753906 3.601562l13.101563 19.921876c1.679687 2.550781 1.816406 5.820312.363281 8.523437-1.378907 2.554687-3.878907 4.078125-6.6875 4.078125h-32.019531v20.457031c0 2.210938-1.789063 4-4 4zm-29.09375-8h25.097656v-20.457031c0-2.207031 1.792968-4 4-4h35.699218c.007813-.0625.003907-.136719-.042968-.207031l-17.035156-25.902344c-.808594-1.226563-.878907-2.800781-.183594-4.097656.703125-1.292969 2.050781-2.101563 3.523437-2.101563h5.175781c.007813-.054687.003907-.125-.039062-.199218l-15.398438-27.679688c-.691406-1.238281-.671874-2.75.046876-3.972656.714843-1.222656 2.03125-1.972656 3.449218-1.972656h2.808594c.007812-.054688.003906-.125-.035156-.195313l-34.519532-63.183594-34.523437 63.183594c-.039063.070313-.042969.140625-.039063.195313h2.816407c1.417969 0 2.726562.75 3.445312 1.972656s.738281 2.734375.050781 3.972656l-15.402343 27.679688c-.042969.074218-.046875.140624-.042969.199218h5.179688c1.46875 0 2.820312.808594 3.523437 2.101563.695313 1.296875.625 2.871093-.179687 4.097656l-17.039063 25.902344c-.042969.070312-.050781.144531-.042969.210937h35.699219c2.207031 0 4 1.789063 4 4v20.453125zm0 0"/><path d="m474.71875 403.3125h-462.082031c-6.96875 0-12.636719-5.671875-12.636719-12.640625v-14.824219c0-6.964844 5.667969-12.636718 12.636719-12.636718h462.085937c6.96875 0 12.636719 5.671874 12.636719 12.636718v14.824219c0 6.96875-5.667969 12.640625-12.640625 12.640625zm-462.082031-32.105469c-2.558594 0-4.636719 2.082031-4.636719 4.640625v14.824219c0 2.558594 2.078125 4.636719 4.636719 4.636719h462.085937c2.554688 0 4.636719-2.078125 4.636719-4.636719v-14.824219c0-2.558594-2.082031-4.640625-4.636719-4.640625zm0 0"/></g></svg>